<svg width="23" height="23" viewBox="0 0 23 23" fill="none" xmlns="http://www.w3.org/2000/svg">
<g clip-path="url(#clip0_210_287)">
<path d="M11.25 15.6946C13.7045 15.6946 15.6944 13.7047 15.6944 11.2501C15.6944 8.79551 13.7045 6.80566 11.25 6.80566C8.79539 6.80566 6.80554 8.79551 6.80554 11.2501C6.80554 13.7047 8.79539 15.6946 11.25 15.6946Z" stroke="white" stroke-width="2.3" stroke-linecap="round" stroke-linejoin="round"/>
<path d="M1.25 15.6944V6.80556C1.25 3.73731 3.73731 1.25 6.80556 1.25H15.6944C18.7627 1.25 21.25 3.73731 21.25 6.80556V15.6944C21.25 18.7627 18.7627 21.25 15.6944 21.25H6.80556C3.73731 21.25 1.25 18.7627 1.25 15.6944Z" stroke="white" stroke-width="2.5"/>
<path d="M17.3611 5.15071L17.3728 5.1377" stroke="white" stroke-width="2.5" stroke-linecap="round" stroke-linejoin="round"/>
</g>
<defs>
<clipPath id="clip0_210_287">
<rect width="22.5" height="22.5" fill="white"/>
</clipPath>
</defs>
</svg>
